<?xml version="1.0" standalone="no"?>
<!DOCTYPE svg PUBLIC "-//W3C//DTD SVG 20010904//EN"
 "http://www.w3.org/TR/2001/REC-SVG-20010904/DTD/svg10.dtd">
<svg version="1.0" xmlns="http://www.w3.org/2000/svg"
 width="1024.000000pt" height="1024.000000pt" viewBox="0 0 1024.000000 1024.000000"
 preserveAspectRatio="xMidYMid meet">

<g transform="translate(0.000000,1024.000000) scale(0.100000,-0.100000)"
fill="#000000" stroke="none">
<path d="M4050 9034 c-109 -20 -238 -69 -331 -124 -92 -55 -254 -214 -298
-293 l-33 -57 -86 0 c-431 0 -814 -383 -839 -837 l-6 -102 -57 -40 c-103 -72
-232 -228 -300 -360 -143 -282 -164 -698 -48 -981 33 -81 86 -178 129 -235
l38 -50 -18 -56 c-47 -140 -52 -387 -12 -540 68 -261 238 -486 449 -592 83
-42 86 -44 103 -95 92 -270 363 -467 653 -473 l81 -2 76 -71 c169 -157 373
-236 615 -236 143 0 238 21 356 78 l78 38 102 -9 c169 -14 449 6 623 44 211
46 455 149 632 268 166 111 357 311 461 485 100 164 171 396 197 644 l7 62
299 0 299 0 35 33 c59 54 60 148 3 213 -39 44 -72 61 -135 70 l-51 6 -4 63
c-3 49 -10 70 -32 99 -51 67 -62 71 -248 75 l-168 3 2 991 3 990 105 -1 c58
-1 226 -2 374 -2 251 0 268 -1 263 -17 -3 -10 -47 -126 -97 -258 -51 -132
-130 -340 -176 -463 -70 -187 -90 -229 -119 -256 -40 -39 -43 -62 -15 -125 51
-112 156 -223 261 -276 106 -54 274 -71 394 -40 133 35 264 135 336 256 53 88
60 135 27 174 -14 17 -66 134 -116 260 -87 221 -253 631 -286 706 l-15 36 66
6 c49 5 72 12 90 29 45 42 47 128 3 172 -20 21 -29 21 -558 26 l-537 5 -5 150
c-3 93 -10 158 -18 172 -21 38 -53 53 -113 53 -49 0 -61 -4 -87 -28 -38 -35
-45 -80 -39 -230 3 -90 2 -112 -10 -116 -8 -4 -244 -6 -524 -6 -560 0 -554 1
-579 -60 -17 -42 -6 -97 26 -131 20 -21 39 -29 86 -34 49 -6 59 -10 55 -24 -3
-9 -26 -70 -52 -136 -66 -171 -199 -519 -251 -660 -24 -66 -58 -148 -75 -182
-37 -74 -35 -83 38 -195 162 -247 461 -329 718 -195 117 61 265 244 265 328 0
27 -8 45 -32 71 -22 22 -50 77 -82 159 -120 306 -286 719 -309 771 -14 31 -21
58 -16 60 5 2 175 2 379 0 l370 -2 0 -989 0 -989 -162 -4 c-193 -5 -226 -15
-258 -77 -11 -22 -23 -67 -26 -100 l-7 -59 -51 -6 c-99 -11 -169 -86 -169
-180 0 -62 14 -91 56 -116 30 -19 53 -20 326 -20 l294 0 -7 -82 c-15 -166 -54
-315 -117 -441 -124 -247 -348 -465 -605 -587 -206 -99 -486 -160 -731 -160
l-92 0 35 53 c41 62 68 144 84 253 8 57 10 620 8 1999 -3 2154 4 1956 -78
2120 -91 183 -244 309 -440 365 -101 29 -267 35 -380 14z m365 -229 c178 -72
289 -206 315 -380 7 -47 10 -695 8 -1985 l-3 -1915 -26 -66 c-58 -149 -136
-240 -260 -302 -102 -51 -176 -68 -291 -68 -109 0 -121 2 -230 38 -191 61
-337 211 -384 394 -25 97 -2 223 55 295 53 67 6 154 -84 154 -39 0 -47 -5 -83
-45 -25 -29 -51 -75 -69 -123 -25 -68 -28 -90 -27 -192 0 -81 5 -128 17 -160
9 -25 13 -48 8 -53 -13 -13 -164 41 -227 81 -125 81 -218 219 -232 342 l-7 64
-60 21 c-224 79 -379 246 -445 479 -32 114 -39 359 -11 404 6 9 26 2 75 -27
80 -46 173 -74 236 -69 38 3 48 8 67 37 13 19 23 44 23 57 0 38 -44 80 -97 93
-215 53 -398 252 -469 509 -97 353 -18 697 219 957 49 53 56 58 62 40 53 -144
120 -276 166 -326 66 -71 179 -34 179 60 0 32 -11 56 -53 118 -242 356 -116
874 258 1059 68 33 180 63 239 64 26 0 28 -2 22 -27 -14 -59 -18 -221 -7 -290
16 -103 64 -241 95 -272 21 -20 36 -26 70 -26 51 0 80 21 96 71 10 30 8 44
-19 114 -44 113 -57 213 -42 314 42 277 252 506 528 576 119 30 293 24 388
-15z m3358 -1707 c9 -21 13 -38 9 -39 -35 -3 -605 0 -608 3 -2 3 17 55 42 118
25 62 88 226 140 364 52 138 99 262 105 276 10 22 26 -12 153 -330 79 -195
150 -372 159 -392z m-2100 362 c80 -201 147 -374 151 -385 6 -20 1 -20 -297
-18 -166 1 -301 5 -300 10 4 16 72 201 116 313 25 63 68 174 95 245 63 167 81
209 86 204 2 -2 69 -168 149 -369z"/>
<path d="M4130 8481 c-85 -18 -159 -87 -184 -172 -32 -105 -16 -163 65 -242
l59 -58 0 -193 0 -194 -126 -257 c-142 -288 -136 -281 -239 -270 -75 9 -148
51 -228 133 l-58 58 11 49 c45 200 -164 360 -348 266 -50 -25 -106 -88 -123
-137 -40 -119 11 -252 115 -300 52 -24 139 -31 181 -14 17 6 37 -8 115 -85
129 -125 176 -147 325 -154 l111 -6 142 -134 c135 -128 141 -135 134 -165 -7
-29 -6 -99 0 -156 3 -21 -26 -52 -167 -187 l-170 -163 -201 0 -201 0 -101 96
c-55 52 -112 104 -126 115 -25 20 -26 23 -20 98 6 66 3 84 -16 129 -85 198
-352 205 -451 11 -42 -84 -35 -169 24 -255 54 -82 149 -117 251 -94 l49 11
152 -151 151 -150 225 0 c123 0 229 -4 235 -8 6 -4 88 -126 183 -272 l171
-264 0 -216 -1 -215 -39 -27 c-83 -57 -122 -187 -86 -283 39 -101 160 -175
263 -161 109 15 201 105 219 214 14 87 -38 200 -112 244 l-34 20 0 214 c0 159
-4 223 -14 248 -12 30 -135 224 -299 471 l-66 100 163 168 c157 161 164 167
190 157 80 -30 208 6 262 73 34 43 63 112 63 153 2 92 -64 199 -144 235 -46
21 -136 25 -185 8 l-32 -12 -120 120 -119 119 102 205 c56 112 123 251 150
308 l49 104 0 197 0 197 38 24 c20 13 51 46 69 72 56 83 56 175 0 268 -25 42
-44 59 -87 81 -61 31 -117 40 -170 29z"/>
<path d="M3328 5597 c-46 -34 -106 -79 -135 -100 l-52 -38 -63 22 c-111 37
-218 7 -282 -79 -64 -88 -70 -179 -19 -273 117 -217 453 -142 455 101 l0 48
139 106 c76 58 145 116 153 129 44 68 5 147 -73 147 -34 0 -54 -10 -123 -63z"/>
<path d="M4513 3410 c-37 -22 -73 -86 -73 -127 1 -45 36 -111 72 -133 23 -14
50 -20 89 -20 73 0 116 28 143 92 27 66 16 111 -40 166 -42 39 -48 42 -102 42
-39 0 -67 -6 -89 -20z"/>
<path d="M1978 2675 l-3 -695 148 0 147 0 0 695 0 695 -145 0 -145 0 -2 -695z"/>
<path d="M2908 3298 c-165 -454 -468 -1302 -468 -1314 0 -2 66 -4 148 -4 l147
0 51 148 51 147 275 3 274 2 54 -150 53 -150 150 0 c115 0 148 3 145 13 -3 6
-44 116 -91 242 -47 127 -157 426 -245 665 -89 239 -164 443 -167 453 -6 15
-25 17 -179 17 l-171 0 -27 -72z m252 -388 c41 -113 130 -371 130 -377 0 -2
-81 -3 -180 -3 -99 0 -180 4 -180 8 0 7 143 432 165 491 9 24 22 1 65 -119z"/>
<path d="M3947 3363 c-2 -5 -4 -317 -5 -695 l-1 -688 139 0 140 0 0 695 0 695
-134 0 c-74 0 -137 -3 -139 -7z"/>
<path d="M5425 3007 c-70 -24 -120 -54 -158 -96 l-37 -41 0 65 0 65 -130 0
-130 0 0 -510 0 -510 130 0 130 0 0 323 c0 355 3 369 66 429 80 75 216 78 281
7 49 -53 53 -88 53 -435 l0 -324 131 0 130 0 -3 378 c-3 361 -4 380 -25 436
-32 85 -86 144 -165 185 -56 28 -80 34 -150 37 -53 3 -98 -1 -123 -9z"/>
<path d="M6409 3006 c-176 -51 -292 -193 -327 -401 -23 -131 -8 -237 50 -355
67 -137 165 -215 303 -241 125 -23 243 7 344 90 l54 44 -7 -89 c-12 -139 -44
-193 -140 -235 -39 -17 -70 -22 -132 -21 -100 0 -175 21 -245 68 l-54 36 -23
-29 c-13 -15 -43 -51 -68 -80 -24 -28 -44 -58 -44 -66 0 -14 77 -71 136 -101
111 -55 324 -80 454 -52 159 34 265 112 326 240 44 93 45 105 47 723 l2 463
-127 0 -128 0 0 -67 c0 -67 0 -67 -17 -43 -26 37 -52 57 -118 92 -52 27 -72
31 -150 34 -55 2 -108 -2 -136 -10z m287 -245 c40 -23 57 -42 85 -93 32 -60
34 -68 34 -163 0 -79 -4 -107 -19 -135 -68 -125 -170 -174 -288 -135 -64 20
-101 53 -136 120 -24 45 -27 61 -27 155 0 89 3 112 22 151 46 91 106 129 208
129 59 0 78 -5 121 -29z"/>
<path d="M7648 3005 c-91 -23 -148 -55 -219 -125 -108 -106 -159 -232 -159
-395 0 -304 186 -506 482 -522 112 -7 185 9 282 60 106 56 199 171 242 297 27
78 27 263 0 339 -64 185 -210 319 -380 350 -79 14 -178 13 -248 -4z m238 -234
c58 -26 111 -93 134 -169 25 -81 25 -143 0 -223 -37 -121 -111 -178 -230 -179
-123 0 -210 65 -245 183 -30 101 -14 227 38 304 63 93 200 131 303 84z"/>
<path d="M4464 2984 c3 -9 6 -238 6 -510 l0 -494 130 0 130 0 0 510 0 510
-136 0 c-120 0 -135 -2 -130 -16z"/>
</g>
</svg>
